# xmcd CD database file
#
# Track frame offsets:
#	150
#	11646
#	23759
#	34992
#	45342
#	58872
#	71228
#	84493
#	96961
#	110214
#	123806
#	136050
#	149844
#	161681
#	174249
#	187087
#	200191
#	211381
#	222191
#	235754
#
# Disc length: 3332 seconds
#
# Revision: 0
# Processed by: cddbd v1.5.2PL0 Copyright (c) Steve Scherf et al.
# Submitted via: CDex 1.70beta2
#
DISCID=2d0d0214
DTITLE=B.B. KING - Take A Swing With Me
DYEAR=2006
DGENRE=Blues
TTITLE0=Take A Swing With Me
TTITLE1=Miss Martha King
TTITLE2=She's Dynamite
TTITLE3=That Ain't The Way To Do It
TTITLE4=Three O'Clock Blues
TTITLE5=Gotta Find My Baby
TTITLE6=Story From My Heart And Soul
TTITLE7=Boogie Woogie Woman
TTITLE8=Woke Up This Morning
TTITLE9=Blind Love
TTITLE10=Please Hurry Home
TTITLE11=You Know I Love You
TTITLE12=Don't You Want A Man Like Me
TTITLE13=Please Love Me
TTITLE14=The Woman I Love
TTITLE15=When My Baby Beats Like A Hammer
TTITLE16=Bye Bye Baby
TTITLE17=Everything I Do Is Wrong
TTITLE18=You Upset Me Baby
TTITLE19=Whole Lotta Love
EXTD=YEAR: 2006
EXTT0=
EXTT1=
EXTT2=
EXTT3=
EXTT4=
EXTT5=
EXTT6=
EXTT7=
EXTT8=
EXTT9=
EXTT10=
EXTT11=
EXTT12=
EXTT13=
EXTT14=
EXTT15=
EXTT16=
EXTT17=
EXTT18=
EXTT19=
PLAYORDER=
